STARTFONT 2.1
FONT -FontForge-Segment7-Book-R-Normal--32-310-75-75-P-163-ISO10646-1
SIZE 31 75 75
FONTBOUNDINGBOX 33 34 -1 -7
COMMENT "Generated by fontforge, http://fontforge.sourceforge.net"
STARTPROPERTIES 40
FOUNDRY "FontForge"
FAMILY_NAME "Segment7"
WEIGHT_NAME "Book"
SLANT "R"
SETWIDTH_NAME "Normal"
ADD_STYLE_NAME ""
PIXEL_SIZE 32
POINT_SIZE 310
RESOLUTION_X 75
RESOLUTION_Y 75
SPACING "P"
AVERAGE_WIDTH 163
CHARSET_REGISTRY "ISO10646"
CHARSET_ENCODING "1"
FONTNAME_REGISTRY ""
CHARSET_COLLECTIONS "Symbol ISO10646-1"
FONT_NAME "Segment7"
FACE_NAME "Segment7"
FONT_VERSION "1.00;September 13, 2019;FontCreator 11.5.0.2430 64-bit"
FONT_ASCENT 25
FONT_DESCENT 7
UNDERLINE_POSITION -5
UNDERLINE_THICKNESS 3
X_HEIGHT 21
CAP_HEIGHT 21
DEFAULT_CHAR 1
RAW_ASCENT 799
RAW_DESCENT 200
NORM_SPACE 8
RELATIVE_WEIGHT 40
RELATIVE_SETWIDTH 50
SUPERSCRIPT_X 0
SUPERSCRIPT_Y 15
SUPERSCRIPT_SIZE 20
SUBSCRIPT_X 0
SUBSCRIPT_Y 4
SUBSCRIPT_SIZE 20
FIGURE_WIDTH 17
AVG_LOWERCASE_WIDTH 168
AVG_UPPERCASE_WIDTH 170
ENDPROPERTIES
CHARS 240
STARTCHAR .null
ENCODING 0
SWIDTH 0 0
DWIDTH 0 0
BBX 1 1 0 0
BITMAP
00
ENDCHAR
STARTCHAR .null.dup1
ENCODING 29
SWIDTH 0 0
DWIDTH 0 0
BBX 1 1 0 0
BITMAP
00
ENDCHAR
STARTCHAR space
ENCODING 32
SWIDTH 248 0
DWIDTH 8 0
BBX 1 1 0 0
BITMAP
00
ENDCHAR
STARTCHAR exclam
ENCODING 33
SWIDTH 202 0
DWIDTH 6 0
BBX 3 16 0 0
BITMAP
80
C0
E0
E0
E0
E0
E0
E0
C0
00
00
00
00
E0
E0
E0
ENDCHAR
STARTCHAR quotedbl
ENCODING 34
SWIDTH 341 0
DWIDTH 11 0
BBX 9 9 0 12
BITMAP
8600
C700
E780
E780
E780
E780
E780
E700
C200
ENDCHAR
STARTCHAR numbersign
ENCODING 35
SWIDTH 652 0
DWIDTH 21 0
BBX 17 22 2 0
BITMAP
00C200
00C600
008400
018400
018C00
010C00
010800
3FFF80
7FFF80
021000
061000
063000
042000
FFFF00
FFFE00
086000
084000
184000
18C000
108000
308000
318000
ENDCHAR
STARTCHAR dollar
ENCODING 36
SWIDTH 536 0
DWIDTH 17 0
BBX 14 22 0 0
BITMAP
7FF8
BFE4
DFCC
E01C
E03C
003C
003C
003C
001C
1FE8
3FF0
3FE0
0000
0000
0000
0000
0000
0000
0000
1FE0
3FF0
7FF8
ENDCHAR
STARTCHAR percent
ENCODING 37
SWIDTH 536 0
DWIDTH 17 0
BBX 14 22 0 0
BITMAP
7E00
BD00
DB00
E700
E71C
DB3C
BD78
7EF0
01E0
03C0
0780
0F00
1E00
3C00
7BF0
F5EC
E6DC
C73C
073C
06DC
05E8
03F0
ENDCHAR
STARTCHAR ampersand
ENCODING 38
SWIDTH 536 0
DWIDTH 17 0
BBX 14 22 0 0
BITMAP
7FF8
BFE4
DFCC
E01C
E03C
003C
003C
003C
001C
1FE8
3FF0
3FE0
0000
0000
0000
0000
0000
0000
0000
1FE0
3FF0
7FF8
ENDCHAR
STARTCHAR quotesingle
ENCODING 39
SWIDTH 196 0
DWIDTH 6 0
BBX 3 9 0 12
BITMAP
80
C0
E0
E0
E0
E0
E0
E0
C0
ENDCHAR
STARTCHAR parenleft
ENCODING 40
SWIDTH 536 0
DWIDTH 17 0
BBX 14 22 0 0
BITMAP
7FF8
BFE4
DFCC
E01C
E03C
003C
003C
003C
001C
1FE8
3FF0
3FE0
0000
0000
0000
0000
0000
0000
0000
1FE0
3FF0
7FF8
ENDCHAR
STARTCHAR parenright
ENCODING 41
SWIDTH 536 0
DWIDTH 17 0
BBX 14 22 0 0
BITMAP
7FF8
BFE4
DFCC
E01C
E03C
003C
003C
003C
001C
1FE8
3FF0
3FE0
0000
0000
0000
0000
0000
0000
0000
1FE0
3FF0
7FF8
ENDCHAR
STARTCHAR asterisk
ENCODING 42
SWIDTH 536 0
DWIDTH 17 0
BBX 14 22 0 0
BITMAP
7FF8
BFE4
DFCC
E01C
E03C
003C
003C
003C
001C
1FE8
3FF0
3FE0
0000
0000
0000
0000
0000
0000
0000
1FE0
3FF0
7FF8
ENDCHAR
STARTCHAR plus
ENCODING 43
SWIDTH 495 0
DWIDTH 16 0
BBX 13 14 1 4
BITMAP
0300
0300
0300
0300
0300
0300
FFF8
FFF8
0300
0300
0300
0300
0300
0300
ENDCHAR
STARTCHAR comma
ENCODING 44
SWIDTH 173 0
DWIDTH 6 0
BBX 3 10 0 1
BITMAP
40
C0
E0
E0
E0
E0
E0
E0
C0
80
ENDCHAR
STARTCHAR hyphen
ENCODING 45
SWIDTH 488 0
DWIDTH 16 0
BBX 10 3 2 10
BITMAP
FF80
FFC0
7F80
ENDCHAR
STARTCHAR period
ENCODING 46
SWIDTH 202 0
DWIDTH 6 0
BBX 3 3 0 0
BITMAP
E0
E0
E0
ENDCHAR
STARTCHAR slash
ENCODING 47
SWIDTH 536 0
DWIDTH 17 0
BBX 14 14 0 4
BITMAP
0018
003C
007C
00F8
01F0
03E0
07C0
0F80
1F00
3E00
7C00
F800
F000
E000
ENDCHAR
STARTCHAR zero
ENCODING 48
SWIDTH 536 0
DWIDTH 17 0
BBX 14 22 0 0
BITMAP
7FF8
BFE4
DFCC
E01C
E03C
E03C
E03C
E03C
E01C
C00C
0000
4008
C00C
E01C
E03C
E03C
E03C
E03C
E01C
DFEC
BFF4
7FF8
ENDCHAR
STARTCHAR one
ENCODING 49
SWIDTH 536 0
DWIDTH 17 0
BBX 7 21 7 1
BITMAP
FC
F2
E6
0E
1E
1E
1E
1E
0E
06
00
00
06
0E
1E
1E
1E
1E
0E
06
02
ENDCHAR
STARTCHAR two
ENCODING 50
SWIDTH 536 0
DWIDTH 17 0
BBX 14 22 0 0
BITMAP
7FF8
BFE4
DFCC
E01C
E03C
003C
003C
003C
001C
1FE8
3FF0
7FE0
C000
E000
E000
E000
E000
E000
E000
DFE0
BFF0
7FF8
ENDCHAR
STARTCHAR three
ENCODING 51
SWIDTH 536 0
DWIDTH 17 0
BBX 14 22 0 0
BITMAP
7FF8
BFE4
DFCC
E01C
E03C
003C
003C
003C
001C
1FE8
3FF0
3FE8
000C
001C
003C
003C
003C
E03C
E01C
DFEC
BFF4
7FF8
ENDCHAR
STARTCHAR four
ENCODING 52
SWIDTH 536 0
DWIDTH 17 0
BBX 14 20 0 1
BITMAP
800C
C01C
E03C
E03C
E03C
E03C
E03C
E01C
DFEC
3FF0
3FF8
000C
001C
003C
003C
003C
003C
001C
000C
0004
ENDCHAR
STARTCHAR five
ENCODING 53
SWIDTH 536 0
DWIDTH 17 0
BBX 14 22 0 0
BITMAP
7FF8
BFE0
DFC0
E000
E000
E000
E000
E000
E000
DFE0
3FF0
3FE8
000C
001C
003C
003C
003C
E03C
E01C
DFEC
BFF4
7FF8
ENDCHAR
STARTCHAR six
ENCODING 54
SWIDTH 536 0
DWIDTH 17 0
BBX 14 22 0 0
BITMAP
7FF8
BFE4
DFDC
E03C
E03C
E000
E000
E000
E000
DFE0
3FF0
7FE8
C00C
E01C
E03C
E03C
E03C
E03C
E01C
DFEC
BFF4
7FF8
ENDCHAR
STARTCHAR seven
ENCODING 55
SWIDTH 536 0
DWIDTH 17 0
BBX 14 21 0 1
BITMAP
7FF8
BFEC
DFDC
E03C
E03C
003C
003C
003C
001C
000C
0000
0008
000C
001C
003C
003C
003C
003C
001C
000C
0004
ENDCHAR
STARTCHAR eight
ENCODING 56
SWIDTH 536 0
DWIDTH 17 0
BBX 14 22 0 0
BITMAP
7FF8
BFE4
DFCC
E01C
E03C
E03C
E03C
E03C
E01C
DFE8
3FF0
7FE8
C00C
E01C
E03C
E03C
E03C
E03C
E01C
DFEC
BFF4
7FF8
ENDCHAR
STARTCHAR nine
ENCODING 57
SWIDTH 536 0
DWIDTH 17 0
BBX 14 22 0 0
BITMAP
7FF8
BFE4
DFCC
E01C
E03C
E03C
E03C
E03C
E01C
DFE8
3FF0
3FE8
000C
001C
003C
003C
003C
E03C
E01C
DFEC
BFF4
7FF8
ENDCHAR
STARTCHAR colon
ENCODING 58
SWIDTH 202 0
DWIDTH 6 0
BBX 3 12 0 5
BITMAP
E0
E0
E0
00
00
00
00
00
00
E0
E0
E0
ENDCHAR
STARTCHAR semicolon
ENCODING 59
SWIDTH 202 0
DWIDTH 6 0
BBX 3 16 0 2
BITMAP
E0
E0
E0
00
00
00
00
00
00
E0
E0
E0
E0
E0
E0
E0
ENDCHAR
STARTCHAR less
ENCODING 60
SWIDTH 536 0
DWIDTH 17 0
BBX 9 14 2 5
BITMAP
0180
0380
0780
0F00
1E00
3E00
7C00
F800
3C00
1E00
0F00
0780
0380
0180
ENDCHAR
STARTCHAR equal
ENCODING 61
SWIDTH 536 0
DWIDTH 17 0
BBX 14 10 0 6
BITMAP
7FF0
FFFC
7FF8
0000
0000
0000
0000
7FF8
FFFC
7FF0
ENDCHAR
STARTCHAR greater
ENCODING 62
SWIDTH 536 0
DWIDTH 17 0
BBX 9 14 2 4
BITMAP
E000
F000
F800
7C00
3E00
1F00
0F80
0F80
1F00
3E00
7C00
F800
F000
E000
ENDCHAR
STARTCHAR question
ENCODING 63
SWIDTH 536 0
DWIDTH 17 0
BBX 14 22 0 0
BITMAP
7FF8
BFE4
DFCC
E01C
E03C
003C
003C
003C
001C
1FE8
3FF0
3FE0
0000
0000
0000
0000
0000
0000
0000
1FE0
3FF0
7FF8
ENDCHAR
STARTCHAR at
ENCODING 64
SWIDTH 985 0
DWIDTH 32 0
BBX 27 30 2 -6
BITMAP
003FC000
00E07000
03001C00
06000E00
0C000300
18000380
300001C0
703F01C0
602180E0
6021C0E0
E040C0E0
E001C060
C006C060
C038C060
C060C060
C0C0C0E0
C0C0C0E0
C0C0C0E0
E0C0C0C0
E0C0C180
60E1C300
6071C600
701E7C00
38000000
18000000
0C000000
06000200
03800C00
00E07000
003FC000
ENDCHAR
STARTCHAR A
ENCODING 65
SWIDTH 536 0
DWIDTH 17 0
BBX 14 21 0 2
BITMAP
7FF8
BFF4
DFEC
E01C
E03C
E03C
E03C
E03C
E01C
C01C
7FE8
3FF0
DFE8
E01C
E03C
E03C
E03C
E03C
E03C
E01C
C00C
ENDCHAR
STARTCHAR B
ENCODING 66
SWIDTH 536 0
DWIDTH 17 0
BBX 14 22 0 0
BITMAP
7FF8
BFE4
DFCC
E01C
E03C
E03C
E03C
E03C
E01C
DFE8
3FF0
7FE8
C00C
E01C
E03C
E03C
E03C
E03C
E01C
DFEC
BFF4
7FF8
ENDCHAR
STARTCHAR C
ENCODING 67
SWIDTH 536 0
DWIDTH 17 0
BBX 13 22 0 0
BITMAP
7FF8
BFE0
DFC0
E000
E000
E000
E000
E000
E000
C000
0000
4000
C000
E000
E000
E000
E000
E000
E000
DFE0
BFF0
7FF8
ENDCHAR
STARTCHAR D
ENCODING 68
SWIDTH 536 0
DWIDTH 17 0
BBX 14 22 0 0
BITMAP
7FF8
BFE4
DFCC
E01C
E03C
E03C
E03C
E03C
E01C
C00C
0000
4008
C00C
E01C
E03C
E03C
E03C
E03C
E01C
DFEC
BFF4
7FF8
ENDCHAR
STARTCHAR E
ENCODING 69
SWIDTH 536 0
DWIDTH 17 0
BBX 13 22 0 0
BITMAP
7FF8
BFE0
DFC0
E000
E000
E000
E000
E000
E000
DFE0
3FF0
7FE0
C000
E000
E000
E000
E000
E000
E000
DFE0
BFF0
7FF8
ENDCHAR
STARTCHAR F
ENCODING 70
SWIDTH 536 0
DWIDTH 17 0
BBX 13 21 0 2
BITMAP
7FF8
BFF0
DFE0
E000
E000
E000
E000
E000
E000
C000
7FE0
3FF0
DFE0
E000
E000
E000
E000
E000
E000
E000
C000
ENDCHAR
STARTCHAR G
ENCODING 71
SWIDTH 536 0
DWIDTH 17 0
BBX 14 22 0 0
BITMAP
7FF8
BFE0
DFC0
E000
E000
E000
E000
E000
E000
C000
0000
4008
C00C
E01C
E03C
E03C
E03C
E03C
E01C
DFEC
BFF4
7FF8
ENDCHAR
STARTCHAR H
ENCODING 72
SWIDTH 536 0
DWIDTH 17 0
BBX 14 20 0 2
BITMAP
8004
C00C
E01C
E03C
E03C
E03C
E03C
E01C
C01C
7FE8
3FF0
DFE8
E01C
E03C
E03C
E03C
E03C
E03C
E01C
C00C
ENDCHAR
STARTCHAR I
ENCODING 73
SWIDTH 536 0
DWIDTH 17 0
BBX 4 20 10 1
BITMAP
30
70
F0
F0
F0
F0
F0
70
30
00
20
30
70
F0
F0
F0
F0
70
30
10
ENDCHAR
STARTCHAR J
ENCODING 74
SWIDTH 536 0
DWIDTH 17 0
BBX 14 21 0 0
BITMAP
000C
001C
003C
003C
003C
003C
003C
001C
0008
0000
4008
C00C
E01C
E03C
E03C
E03C
E03C
E01C
DFEC
BFF4
7FF8
ENDCHAR
STARTCHAR K
ENCODING 75
SWIDTH 536 0
DWIDTH 17 0
BBX 14 21 0 0
BITMAP
C00C
E01C
E03C
E03C
E03C
E03C
E03C
E01C
DFE8
3FF0
7FE0
C000
E000
E000
E000
E000
E000
E000
DFE0
BFF0
7FF8
ENDCHAR
STARTCHAR L
ENCODING 76
SWIDTH 536 0
DWIDTH 17 0
BBX 14 21 0 0
BITMAP
C000
C000
E000
E000
E000
E000
E000
E000
C000
0000
4008
C00C
E01C
E03C
E03C
E03C
E03C
E01C
DFEC
BFF4
7FF8
ENDCHAR
STARTCHAR M
ENCODING 77
SWIDTH 536 0
DWIDTH 17 0
BBX 14 21 0 2
BITMAP
7FF8
3FF0
1FE0
0000
0000
0000
0000
0000
0000
0000
3FE0
3FF0
DFE8
E01C
E03C
E03C
E03C
E03C
E03C
E01C
C00C
ENDCHAR
STARTCHAR N
ENCODING 78
SWIDTH 536 0
DWIDTH 17 0
BBX 14 21 0 1
BITMAP
7FF8
BFE4
DFCC
E01C
E03C
E03C
E03C
E03C
E01C
C00C
0000
0000
C00C
E01C
E03C
E03C
E03C
E03C
E01C
C00C
8004
ENDCHAR
STARTCHAR O
ENCODING 79
SWIDTH 536 0
DWIDTH 17 0
BBX 14 22 0 0
BITMAP
7FF8
BFE4
DFCC
E01C
E03C
E03C
E03C
E03C
E01C
C00C
0000
4008
C00C
E01C
E03C
E03C
E03C
E03C
E01C
DFEC
BFF4
7FF8
ENDCHAR
STARTCHAR P
ENCODING 80
SWIDTH 536 0
DWIDTH 17 0
BBX 14 21 0 2
BITMAP
7FF8
BFF4
DFEC
E01C
E03C
E03C
E03C
E03C
E01C
C01C
7FE8
3FF0
DFE0
E000
E000
E000
E000
E000
E000
E000
C000
ENDCHAR
STARTCHAR Q
ENCODING 81
SWIDTH 536 0
DWIDTH 17 0
BBX 14 22 0 0
BITMAP
7FF8
BFE4
DFCC
E01C
E03C
E03C
E03C
E03C
E01C
DFE8
3FF0
3FE0
0000
0000
0000
0000
0000
0000
0000
1FE0
3FF0
7FF8
ENDCHAR
STARTCHAR R
ENCODING 82
SWIDTH 536 0
DWIDTH 17 0
BBX 13 21 0 1
BITMAP
7FF8
BFE0
DFC0
E000
E000
E000
E000
E000
E000
C000
0000
0000
C000
E000
E000
E000
E000
E000
E000
C000
8000
ENDCHAR
STARTCHAR S
ENCODING 83
SWIDTH 536 0
DWIDTH 17 0
BBX 14 22 0 0
BITMAP
7FF8
BFE0
DFC0
E000
E000
E000
E000
E000
E000
DFE0
3FF0
3FE8
000C
001C
003C
003C
003C
003C
001C
1FEC
3FF4
7FF8
ENDCHAR
STARTCHAR T
ENCODING 84
SWIDTH 536 0
DWIDTH 17 0
BBX 13 21 1 1
BITMAP
FFF0
7FC8
3F98
0038
0078
0078
0078
0078
0038
0018
0000
0000
0018
0038
0078
0078
0078
0078
0038
0018
0008
ENDCHAR
STARTCHAR U
ENCODING 85
SWIDTH 536 0
DWIDTH 17 0
BBX 14 21 0 0
BITMAP
C00C
C01C
E03C
E03C
E03C
E03C
E03C
E01C
C008
0000
4008
C00C
E01C
E03C
E03C
E03C
E03C
E01C
DFEC
BFF4
7FF8
ENDCHAR
STARTCHAR V
ENCODING 86
SWIDTH 536 0
DWIDTH 17 0
BBX 14 21 0 0
BITMAP
C00C
E01C
E03C
E03C
E03C
E03C
E03C
E01C
DFE8
3FF0
3FE0
0000
0000
0000
0000
0000
0000
0000
1FE0
3FF0
7FF8
ENDCHAR
STARTCHAR W
ENCODING 87
SWIDTH 536 0
DWIDTH 17 0
BBX 14 21 0 0
BITMAP
C00C
E01C
E03C
E03C
E03C
E03C
E03C
E01C
DFE8
3FF0
7FE8
C00C
E01C
E03C
E03C
E03C
E03C
E01C
DFEC
BFF4
7FF8
ENDCHAR
STARTCHAR X
ENCODING 88
SWIDTH 536 0
DWIDTH 17 0
BBX 12 22 1 0
BITMAP
FFF0
7FC0
3F80
0000
0000
0000
0000
0000
0000
3FC0
7FE0
7FC0
0000
0000
0000
0000
0000
0000
0000
3FC0
7FE0
FFF0
ENDCHAR
STARTCHAR Y
ENCODING 89
SWIDTH 536 0
DWIDTH 17 0
BBX 14 21 0 0
BITMAP
C00C
E01C
E03C
E03C
E03C
E03C
E03C
E01C
DFE8
3FF0
3FE8
000C
001C
003C
003C
003C
003C
001C
1FEC
3FF4
7FF8
ENDCHAR
STARTCHAR Z
ENCODING 90
SWIDTH 536 0
DWIDTH 17 0
BBX 14 22 0 0
BITMAP
7FF8
3FE4
1FCC
001C
003C
003C
003C
003C
001C
1FE8
3FF0
7FE0
C000
E000
E000
E000
E000
E000
E000
DFE0
BFF0
7FF8
ENDCHAR
STARTCHAR bracketleft
ENCODING 91
SWIDTH 536 0
DWIDTH 17 0
BBX 14 22 0 0
BITMAP
7FF8
BFE4
DFCC
E01C
E03C
003C
003C
003C
001C
1FE8
3FF0
3FE0
0000
0000
0000
0000
0000
0000
0000
1FE0
3FF0
7FF8
ENDCHAR
STARTCHAR backslash
ENCODING 92
SWIDTH 536 0
DWIDTH 17 0
BBX 14 22 0 0
BITMAP
7FF8
BFE4
DFCC
E01C
E03C
003C
003C
003C
001C
1FE8
3FF0
3FE0
0000
0000
0000
0000
0000
0000
0000
1FE0
3FF0
7FF8
ENDCHAR
STARTCHAR bracketright
ENCODING 93
SWIDTH 536 0
DWIDTH 17 0
BBX 14 22 0 0
BITMAP
7FF8
BFE4
DFCC
E01C
E03C
003C
003C
003C
001C
1FE8
3FF0
3FE0
0000
0000
0000
0000
0000
0000
0000
1FE0
3FF0
7FF8
ENDCHAR
STARTCHAR asciicircum
ENCODING 94
SWIDTH 536 0
DWIDTH 17 0
BBX 14 22 0 0
BITMAP
7FF8
BFE4
DFCC
E01C
E03C
003C
003C
003C
001C
1FE8
3FF0
3FE0
0000
0000
0000
0000
0000
0000
0000
1FE0
3FF0
7FF8
ENDCHAR
STARTCHAR underscore
ENCODING 95
SWIDTH 536 0
DWIDTH 17 0
BBX 12 3 1 0
BITMAP
3FC0
7FE0
FFF0
ENDCHAR
STARTCHAR grave
ENCODING 96
SWIDTH 196 0
DWIDTH 6 0
BBX 3 9 0 12
BITMAP
80
C0
E0
E0
E0
E0
E0
E0
C0
ENDCHAR
STARTCHAR a
ENCODING 97
SWIDTH 536 0
DWIDTH 17 0
BBX 14 22 0 0
BITMAP
7FF8
3FE4
1FCC
001C
003C
003C
003C
003C
001C
1FE8
3FF0
7FE8
C00C
E01C
E03C
E03C
E03C
E03C
E01C
DFEC
BFF4
7FF8
ENDCHAR
STARTCHAR b
ENCODING 98
SWIDTH 536 0
DWIDTH 17 0
BBX 14 21 0 0
BITMAP
C000
E000
E000
E000
E000
E000
E000
E000
DFE0
3FF0
7FE8
C00C
E01C
E03C
E03C
E03C
E03C
E01C
DFEC
BFF4
7FF8
ENDCHAR
STARTCHAR c
ENCODING 99
SWIDTH 536 0
DWIDTH 17 0
BBX 13 13 0 0
BITMAP
1FE0
3FF0
7FE0
C000
E000
E000
E000
E000
E000
E000
DFE0
BFF0
7FF8
ENDCHAR
STARTCHAR d
ENCODING 100
SWIDTH 536 0
DWIDTH 17 0
BBX 14 21 0 0
BITMAP
000C
001C
003C
003C
003C
003C
003C
001C
1FE8
3FF0
7FE8
C00C
E01C
E03C
E03C
E03C
E03C
E01C
DFEC
BFF4
7FF8
ENDCHAR
STARTCHAR e
ENCODING 101
SWIDTH 536 0
DWIDTH 17 0
BBX 14 22 0 0
BITMAP
7FF8
BFE4
DFCC
E01C
E03C
E03C
E03C
E03C
E01C
DFE8
3FF0
7FE0
C000
E000
E000
E000
E000
E000
E000
DFE0
BFF0
7FF8
ENDCHAR
STARTCHAR f
ENCODING 102
SWIDTH 536 0
DWIDTH 17 0
BBX 13 22 0 0
BITMAP
7FF8
BFE0
DFC0
E000
E000
E000
E000
E000
E000
DFE0
3FF0
7FE0
C000
E000
E000
E000
E000
E000
E000
DFE0
BFF0
7FF8
ENDCHAR
STARTCHAR g
ENCODING 103
SWIDTH 536 0
DWIDTH 17 0
BBX 14 22 0 0
BITMAP
7FF8
BFE4
DFCC
E01C
E03C
E03C
E03C
E03C
E01C
DFE8
3FF0
3FE8
000C
001C
003C
003C
003C
003C
001C
1FEC
3FF4
7FF8
ENDCHAR
STARTCHAR h
ENCODING 104
SWIDTH 536 0
DWIDTH 17 0
BBX 14 20 0 2
BITMAP
8000
C000
E000
E000
E000
E000
E000
E000
C000
7FE0
3FF0
DFE8
E01C
E03C
E03C
E03C
E03C
E03C
E01C
C00C
ENDCHAR
STARTCHAR i
ENCODING 105
SWIDTH 536 0
DWIDTH 17 0
BBX 4 10 10 1
BITMAP
20
30
70
F0
F0
F0
F0
70
30
10
ENDCHAR
STARTCHAR j
ENCODING 106
SWIDTH 536 0
DWIDTH 17 0
BBX 13 21 1 0
BITMAP
0018
0038
0078
0078
0078
0078
0078
0038
0010
0000
0010
0018
0038
0078
0078
0078
0078
0038
3FD8
7FE8
FFF0
ENDCHAR
STARTCHAR k
ENCODING 107
SWIDTH 536 0
DWIDTH 17 0
BBX 14 21 0 2
BITMAP
7FF8
BFF0
DFE0
E000
E000
E000
E000
E000
E000
C000
7FE0
3FF0
DFE8
E01C
E03C
E03C
E03C
E03C
E03C
E01C
C00C
ENDCHAR
STARTCHAR l
ENCODING 108
SWIDTH 536 0
DWIDTH 17 0
BBX 13 21 0 0
BITMAP
C000
C000
E000
E000
E000
E000
E000
E000
C000
0000
4000
C000
E000
E000
E000
E000
E000
E000
DFE0
BFF0
7FF8
ENDCHAR
STARTCHAR m
ENCODING 109
SWIDTH 536 0
DWIDTH 17 0
BBX 14 21 0 2
BITMAP
7FF8
3FF0
1FE0
0000
0000
0000
0000
0000
0000
0000
3FE0
3FF0
DFE8
E01C
E03C
E03C
E03C
E03C
E03C
E01C
C00C
ENDCHAR
STARTCHAR n
ENCODING 110
SWIDTH 536 0
DWIDTH 17 0
BBX 14 11 0 2
BITMAP
3FE0
3FF0
DFE8
E01C
E03C
E03C
E03C
E03C
E03C
E01C
C00C
ENDCHAR
STARTCHAR o
ENCODING 111
SWIDTH 536 0
DWIDTH 17 0
BBX 14 13 0 0
BITMAP
1FE0
3FF0
7FE8
C00C
E01C
E03C
E03C
E03C
E03C
E01C
DFEC
BFF4
7FF8
ENDCHAR
STARTCHAR p
ENCODING 112
SWIDTH 536 0
DWIDTH 17 0
BBX 14 21 0 2
BITMAP
7FF8
BFF4
DFEC
E01C
E03C
E03C
E03C
E03C
E01C
C01C
7FE8
3FF0
DFE0
E000
E000
E000
E000
E000
E000
E000
C000
ENDCHAR
STARTCHAR q
ENCODING 113
SWIDTH 536 0
DWIDTH 17 0
BBX 14 21 0 2
BITMAP
7FF8
BFF4
DFEC
E01C
E03C
E03C
E03C
E03C
E01C
C01C
7FE8
3FF0
1FE8
001C
003C
003C
003C
003C
003C
001C
000C
ENDCHAR
STARTCHAR r
ENCODING 114
SWIDTH 536 0
DWIDTH 17 0
BBX 12 11 0 2
BITMAP
3FE0
3FF0
DFE0
E000
E000
E000
E000
E000
E000
E000
C000
ENDCHAR
STARTCHAR s
ENCODING 115
SWIDTH 536 0
DWIDTH 17 0
BBX 14 20 0 2
BITMAP
8000
C000
E000
E000
E000
E000
E000
E000
C000
7FE0
3FF0
1FE8
001C
003C
003C
003C
003C
003C
001C
000C
ENDCHAR
STARTCHAR t
ENCODING 116
SWIDTH 536 0
DWIDTH 17 0
BBX 13 21 0 0
BITMAP
C000
E000
E000
E000
E000
E000
E000
E000
DFE0
3FF0
7FE0
C000
E000
E000
E000
E000
E000
E000
DFE0
BFF0
7FF8
ENDCHAR
STARTCHAR u
ENCODING 117
SWIDTH 536 0
DWIDTH 17 0
BBX 14 11 0 0
BITMAP
4008
C00C
E01C
E03C
E03C
E03C
E03C
E01C
DFEC
BFF4
7FF8
ENDCHAR
STARTCHAR v
ENCODING 118
SWIDTH 536 0
DWIDTH 17 0
BBX 14 21 0 0
BITMAP
C00C
C01C
E03C
E03C
E03C
E03C
E03C
E01C
C008
0000
0000
0000
0000
0000
0000
0000
0000
0000
1FE0
3FF0
7FF8
ENDCHAR
STARTCHAR w
ENCODING 119
SWIDTH 536 0
DWIDTH 17 0
BBX 14 21 0 0
BITMAP
C00C
E01C
E03C
E03C
E03C
E03C
E03C
E01C
DFE8
3FF0
7FE8
C00C
E01C
E03C
E03C
E03C
E03C
E01C
DFEC
BFF4
7FF8
ENDCHAR
STARTCHAR x
ENCODING 120
SWIDTH 536 0
DWIDTH 17 0
BBX 12 22 1 0
BITMAP
FFF0
7FC0
3F80
0000
0000
0000
0000
0000
0000
3FC0
7FE0
7FC0
0000
0000
0000
0000
0000
0000
0000
3FC0
7FE0
FFF0
ENDCHAR
STARTCHAR y
ENCODING 121
SWIDTH 536 0
DWIDTH 17 0
BBX 14 21 0 0
BITMAP
C00C
E01C
E03C
E03C
E03C
E03C
E03C
E01C
DFE8
3FF0
3FE8
000C
001C
003C
003C
003C
003C
001C
1FEC
3FF4
7FF8
ENDCHAR
STARTCHAR z
ENCODING 122
SWIDTH 536 0
DWIDTH 17 0
BBX 14 22 0 0
BITMAP
7FF8
3FE4
1FCC
001C
003C
003C
003C
003C
001C
1FE8
3FF0
7FE0
C000
E000
E000
E000
E000
E000
E000
DFE0
BFF0
7FF8
ENDCHAR
STARTCHAR braceleft
ENCODING 123
SWIDTH 536 0
DWIDTH 17 0
BBX 14 22 0 0
BITMAP
7FF8
BFE4
DFCC
E01C
E03C
003C
003C
003C
001C
1FE8
3FF0
3FE0
0000
0000
0000
0000
0000
0000
0000
1FE0
3FF0
7FF8
ENDCHAR
STARTCHAR bar
ENCODING 124
SWIDTH 536 0
DWIDTH 17 0
BBX 14 22 0 0
BITMAP
7FF8
BFE4
DFCC
E01C
E03C
003C
003C
003C
001C
1FE8
3FF0
3FE0
0000
0000
0000
0000
0000
0000
0000
1FE0
3FF0
7FF8
ENDCHAR
STARTCHAR braceright
ENCODING 125
SWIDTH 536 0
DWIDTH 17 0
BBX 14 22 0 0
BITMAP
7FF8
BFE4
DFCC
E01C
E03C
003C
003C
003C
001C
1FE8
3FF0
3FE0
0000
0000
0000
0000
0000
0000
0000
1FE0
3FF0
7FF8
ENDCHAR
STARTCHAR asciitilde
ENCODING 126
SWIDTH 536 0
DWIDTH 17 0
BBX 14 22 0 0
BITMAP
7FF8
BFE4
DFCC
E01C
E03C
003C
003C
003C
001C
1FE8
3FF0
3FE0
0000
0000
0000
0000
0000
0000
0000
1FE0
3FF0
7FF8
ENDCHAR
STARTCHAR space.dup2
ENCODING 160
SWIDTH 248 0
DWIDTH 8 0
BBX 1 1 0 0
BITMAP
00
ENDCHAR
STARTCHAR exclamdown
ENCODING 161
SWIDTH 536 0
DWIDTH 17 0
BBX 14 22 0 0
BITMAP
7FF8
BFE4
DFCC
E01C
E03C
003C
003C
003C
001C
1FE8
3FF0
3FE0
0000
0000
0000
0000
0000
0000
0000
1FE0
3FF0
7FF8
ENDCHAR
STARTCHAR cent
ENCODING 162
SWIDTH 536 0
DWIDTH 17 0
BBX 14 22 0 0
BITMAP
7FF8
BFE4
DFCC
E01C
E03C
003C
003C
003C
001C
1FE8
3FF0
3FE0
0000
0000
0000
0000
0000
0000
0000
1FE0
3FF0
7FF8
ENDCHAR
STARTCHAR sterling
ENCODING 163
SWIDTH 536 0
DWIDTH 17 0
BBX 14 22 0 0
BITMAP
7FF8
BFE4
DFCC
E01C
E03C
003C
003C
003C
001C
1FE8
3FF0
3FE0
0000
0000
0000
0000
0000
0000
0000
1FE0
3FF0
7FF8
ENDCHAR
STARTCHAR currency
ENCODING 164
SWIDTH 536 0
DWIDTH 17 0
BBX 14 22 0 0
BITMAP
7FF8
BFE4
DFCC
E01C
E03C
003C
003C
003C
001C
1FE8
3FF0
3FE0
0000
0000
0000
0000
0000
0000
0000
1FE0
3FF0
7FF8
ENDCHAR
STARTCHAR yen
ENCODING 165
SWIDTH 536 0
DWIDTH 17 0
BBX 14 22 0 0
BITMAP
7FF8
BFE4
DFCC
E01C
E03C
003C
003C
003C
001C
1FE8
3FF0
3FE0
0000
0000
0000
0000
0000
0000
0000
1FE0
3FF0
7FF8
ENDCHAR
STARTCHAR brokenbar
ENCODING 166
SWIDTH 536 0
DWIDTH 17 0
BBX 14 22 0 0
BITMAP
7FF8
BFE4
DFCC
E01C
E03C
003C
003C
003C
001C
1FE8
3FF0
3FE0
0000
0000
0000
0000
0000
0000
0000
1FE0
3FF0
7FF8
ENDCHAR
STARTCHAR section
ENCODING 167
SWIDTH 536 0
DWIDTH 17 0
BBX 14 22 0 0
BITMAP
7FF8
BFE4
DFCC
E01C
E03C
003C
003C
003C
001C
1FE8
3FF0
3FE0
0000
0000
0000
0000
0000
0000
0000
1FE0
3FF0
7FF8
ENDCHAR
STARTCHAR dieresis
ENCODING 168
SWIDTH 536 0
DWIDTH 17 0
BBX 14 22 0 0
BITMAP
7FF8
BFE4
DFCC
E01C
E03C
003C
003C
003C
001C
1FE8
3FF0
3FE0
0000
0000
0000
0000
0000
0000
0000
1FE0
3FF0
7FF8
ENDCHAR
STARTCHAR copyright
ENCODING 169
SWIDTH 536 0
DWIDTH 17 0
BBX 14 22 0 0
BITMAP
7FF8
BFE4
DFCC
E01C
E03C
003C
003C
003C
001C
1FE8
3FF0
3FE0
0000
0000
0000
0000
0000
0000
0000
1FE0
3FF0
7FF8
ENDCHAR
STARTCHAR ordfeminine
ENCODING 170
SWIDTH 536 0
DWIDTH 17 0
BBX 14 22 0 0
BITMAP
7FF8
BFF4
DFEC
E01C
E03C
003C
003C
003C
001C
1FE8
3FF0
1FE0
0000
0000
0000
0000
0000
0000
0000
1FE0
3FF0
7FF8
ENDCHAR
STARTCHAR guillemotleft
ENCODING 171
SWIDTH 536 0
DWIDTH 17 0
BBX 14 22 0 0
BITMAP
7FF8
BFE4
DFCC
E01C
E03C
003C
003C
003C
001C
1FE8
3FF0
3FE0
0000
0000
0000
0000
0000
0000
0000
1FE0
3FF0
7FF8
ENDCHAR
STARTCHAR logicalnot
ENCODING 172
SWIDTH 536 0
DWIDTH 17 0
BBX 14 22 0 0
BITMAP
7FF8
BFE4
DFCC
E01C
E03C
003C
003C
003C
001C
1FE8
3FF0
3FE0
0000
0000
0000
0000
0000
0000
0000
1FE0
3FF0
7FF8
ENDCHAR
STARTCHAR hyphen.dup3
ENCODING 173
SWIDTH 488 0
DWIDTH 16 0
BBX 10 3 2 10
BITMAP
FF80
FFC0
7F80
ENDCHAR
STARTCHAR registered
ENCODING 174
SWIDTH 536 0
DWIDTH 17 0
BBX 14 22 0 0
BITMAP
7FF8
BFE4
DFCC
E01C
E03C
003C
003C
003C
001C
1FE8
3FF0
3FE0
0000
0000
0000
0000
0000
0000
0000
1FE0
3FF0
7FF8
ENDCHAR
STARTCHAR macron
ENCODING 175
SWIDTH 536 0
DWIDTH 17 0
BBX 14 22 0 0
BITMAP
7FF8
BFE4
DFCC
E01C
E03C
003C
003C
003C
001C
1FE8
3FF0
3FE0
0000
0000
0000
0000
0000
0000
0000
1FE0
3FF0
7FF8
ENDCHAR
STARTCHAR degree
ENCODING 176
SWIDTH 536 0
DWIDTH 17 0
BBX 14 13 0 10
BITMAP
7FF8
BFF4
DFEC
E01C
E03C
E03C
E03C
E03C
E01C
C01C
7FE8
3FF0
1FE0
ENDCHAR
STARTCHAR plusminus
ENCODING 177
SWIDTH 536 0
DWIDTH 17 0
BBX 14 22 0 0
BITMAP
7FF8
BFE4
DFCC
E01C
E03C
003C
003C
003C
001C
1FE8
3FF0
3FE0
0000
0000
0000
0000
0000
0000
0000
1FE0
3FF0
7FF8
ENDCHAR
STARTCHAR uni00B2
ENCODING 178
SWIDTH 536 0
DWIDTH 17 0
BBX 14 22 0 0
BITMAP
7FF8
BFF4
DFEC
E01C
E03C
003C
003C
003C
001C
1FE8
3FF0
1FE0
0000
0000
0000
0000
0000
0000
0000
1FE0
3FF0
7FF8
ENDCHAR
STARTCHAR uni00B3
ENCODING 179
SWIDTH 536 0
DWIDTH 17 0
BBX 14 22 0 0
BITMAP
7FF8
BFF4
DFEC
E01C
E03C
003C
003C
003C
001C
1FE8
3FF0
1FE0
0000
0000
0000
0000
0000
0000
0000
1FE0
3FF0
7FF8
ENDCHAR
STARTCHAR acute
ENCODING 180
SWIDTH 536 0
DWIDTH 17 0
BBX 14 22 0 0
BITMAP
7FF8
BFE4
DFCC
E01C
E03C
003C
003C
003C
001C
1FE8
3FF0
3FE0
0000
0000
0000
0000
0000
0000
0000
1FE0
3FF0
7FF8
ENDCHAR
STARTCHAR mu
ENCODING 181
SWIDTH 536 0
DWIDTH 17 0
BBX 14 22 0 0
BITMAP
7FF8
BFE4
DFCC
E01C
E03C
003C
003C
003C
001C
1FE8
3FF0
3FE0
0000
0000
0000
0000
0000
0000
0000
1FE0
3FF0
7FF8
ENDCHAR
STARTCHAR paragraph
ENCODING 182
SWIDTH 536 0
DWIDTH 17 0
BBX 14 22 0 0
BITMAP
7FF8
BFE4
DFCC
E01C
E03C
003C
003C
003C
001C
1FE8
3FF0
3FE0
0000
0000
0000
0000
0000
0000
0000
1FE0
3FF0
7FF8
ENDCHAR
STARTCHAR periodcentered
ENCODING 183
SWIDTH 536 0
DWIDTH 17 0
BBX 14 22 0 0
BITMAP
7FF8
BFE4
DFCC
E01C
E03C
003C
003C
003C
001C
1FE8
3FF0
3FE0
0000
0000
0000
0000
0000
0000
0000
1FE0
3FF0
7FF8
ENDCHAR
STARTCHAR cedilla
ENCODING 184
SWIDTH 536 0
DWIDTH 17 0
BBX 14 22 0 0
BITMAP
7FF8
BFE4
DFCC
E01C
E03C
003C
003C
003C
001C
1FE8
3FF0
3FE0
0000
0000
0000
0000
0000
0000
0000
1FE0
3FF0
7FF8
ENDCHAR
STARTCHAR uni00B9
ENCODING 185
SWIDTH 536 0
DWIDTH 17 0
BBX 14 22 0 0
BITMAP
7FF8
BFF4
DFEC
E01C
E03C
003C
003C
003C
001C
1FE8
3FF0
1FE0
0000
0000
0000
0000
0000
0000
0000
1FE0
3FF0
7FF8
ENDCHAR
STARTCHAR ordmasculine
ENCODING 186
SWIDTH 536 0
DWIDTH 17 0
BBX 14 22 0 0
BITMAP
7FF8
BFF4
DFEC
E01C
E03C
003C
003C
003C
001C
1FE8
3FF0
1FE0
0000
0000
0000
0000
0000
0000
0000
1FE0
3FF0
7FF8
ENDCHAR
STARTCHAR guillemotright
ENCODING 187
SWIDTH 536 0
DWIDTH 17 0
BBX 14 22 0 0
BITMAP
7FF8
BFE4
DFCC
E01C
E03C
003C
003C
003C
001C
1FE8
3FF0
3FE0
0000
0000
0000
0000
0000
0000
0000
1FE0
3FF0
7FF8
ENDCHAR
STARTCHAR onequarter
ENCODING 188
SWIDTH 536 0
DWIDTH 17 0
BBX 14 22 0 0
BITMAP
7FF8
BFE4
DFCC
E01C
E03C
003C
003C
003C
001C
1FE8
3FF0
3FE0
0000
0000
0000
0000
0000
0000
0000
1FE0
3FF0
7FF8
ENDCHAR
STARTCHAR onehalf
ENCODING 189
SWIDTH 536 0
DWIDTH 17 0
BBX 14 22 0 0
BITMAP
7FF8
BFE4
DFCC
E01C
E03C
003C
003C
003C
001C
1FE8
3FF0
3FE0
0000
0000
0000
0000
0000
0000
0000
1FE0
3FF0
7FF8
ENDCHAR
STARTCHAR threequarters
ENCODING 190
SWIDTH 536 0
DWIDTH 17 0
BBX 14 22 0 0
BITMAP
7FF8
BFE4
DFCC
E01C
E03C
003C
003C
003C
001C
1FE8
3FF0
3FE0
0000
0000
0000
0000
0000
0000
0000
1FE0
3FF0
7FF8
ENDCHAR
STARTCHAR questiondown
ENCODING 191
SWIDTH 536 0
DWIDTH 17 0
BBX 14 22 0 0
BITMAP
7FF8
BFE4
DFCC
E01C
E03C
003C
003C
003C
001C
1FE8
3FF0
3FE0
0000
0000
0000
0000
0000
0000
0000
1FE0
3FF0
7FF8
ENDCHAR
STARTCHAR Agrave
ENCODING 192
SWIDTH 536 0
DWIDTH 17 0
BBX 14 22 0 0
BITMAP
7FF8
BFE4
DFCC
E01C
E03C
003C
003C
003C
001C
1FE8
3FF0
3FE0
0000
0000
0000
0000
0000
0000
0000
1FE0
3FF0
7FF8
ENDCHAR
STARTCHAR Aacute
ENCODING 193
SWIDTH 536 0
DWIDTH 17 0
BBX 14 22 0 0
BITMAP
7FF8
BFE4
DFCC
E01C
E03C
003C
003C
003C
001C
1FE8
3FF0
3FE0
0000
0000
0000
0000
0000
0000
0000
1FE0
3FF0
7FF8
ENDCHAR
STARTCHAR Acircumflex
ENCODING 194
SWIDTH 536 0
DWIDTH 17 0
BBX 14 22 0 0
BITMAP
7FF8
BFE4
DFCC
E01C
E03C
003C
003C
003C
001C
1FE8
3FF0
3FE0
0000
0000
0000
0000
0000
0000
0000
1FE0
3FF0
7FF8
ENDCHAR
STARTCHAR Atilde
ENCODING 195
SWIDTH 536 0
DWIDTH 17 0
BBX 14 22 0 0
BITMAP
7FF8
BFE4
DFCC
E01C
E03C
003C
003C
003C
001C
1FE8
3FF0
3FE0
0000
0000
0000
0000
0000
0000
0000
1FE0
3FF0
7FF8
ENDCHAR
STARTCHAR Adieresis
ENCODING 196
SWIDTH 536 0
DWIDTH 17 0
BBX 14 22 0 0
BITMAP
7FF8
BFE4
DFCC
E01C
E03C
003C
003C
003C
001C
1FE8
3FF0
3FE0
0000
0000
0000
0000
0000
0000
0000
1FE0
3FF0
7FF8
ENDCHAR
STARTCHAR Aring
ENCODING 197
SWIDTH 536 0
DWIDTH 17 0
BBX 14 22 0 0
BITMAP
7FF8
BFE4
DFCC
E01C
E03C
003C
003C
003C
001C
1FE8
3FF0
3FE0
0000
0000
0000
0000
0000
0000
0000
1FE0
3FF0
7FF8
ENDCHAR
STARTCHAR AE
ENCODING 198
SWIDTH 536 0
DWIDTH 17 0
BBX 14 22 0 0
BITMAP
7FF8
BFE4
DFCC
E01C
E03C
003C
003C
003C
001C
1FE8
3FF0
3FE0
0000
0000
0000
0000
0000
0000
0000
1FE0
3FF0
7FF8
ENDCHAR
STARTCHAR Ccedilla
ENCODING 199
SWIDTH 536 0
DWIDTH 17 0
BBX 14 22 0 0
BITMAP
7FF8
BFE4
DFCC
E01C
E03C
003C
003C
003C
001C
1FE8
3FF0
3FE0
0000
0000
0000
0000
0000
0000
0000
1FE0
3FF0
7FF8
ENDCHAR
STARTCHAR Egrave
ENCODING 200
SWIDTH 536 0
DWIDTH 17 0
BBX 14 22 0 0
BITMAP
7FF8
BFE4
DFCC
E01C
E03C
003C
003C
003C
001C
1FE8
3FF0
3FE0
0000
0000
0000
0000
0000
0000
0000
1FE0
3FF0
7FF8
ENDCHAR
STARTCHAR Eacute
ENCODING 201
SWIDTH 536 0
DWIDTH 17 0
BBX 14 22 0 0
BITMAP
7FF8
BFE4
DFCC
E01C
E03C
003C
003C
003C
001C
1FE8
3FF0
3FE0
0000
0000
0000
0000
0000
0000
0000
1FE0
3FF0
7FF8
ENDCHAR
STARTCHAR Ecircumflex
ENCODING 202
SWIDTH 536 0
DWIDTH 17 0
BBX 14 22 0 0
BITMAP
7FF8
BFE4
DFCC
E01C
E03C
003C
003C
003C
001C
1FE8
3FF0
3FE0
0000
0000
0000
0000
0000
0000
0000
1FE0
3FF0
7FF8
ENDCHAR
STARTCHAR Edieresis
ENCODING 203
SWIDTH 536 0
DWIDTH 17 0
BBX 14 22 0 0
BITMAP
7FF8
BFE4
DFCC
E01C
E03C
003C
003C
003C
001C
1FE8
3FF0
3FE0
0000
0000
0000
0000
0000
0000
0000
1FE0
3FF0
7FF8
ENDCHAR
STARTCHAR Igrave
ENCODING 204
SWIDTH 536 0
DWIDTH 17 0
BBX 14 22 0 0
BITMAP
7FF8
BFE4
DFCC
E01C
E03C
003C
003C
003C
001C
1FE8
3FF0
3FE0
0000
0000
0000
0000
0000
0000
0000
1FE0
3FF0
7FF8
ENDCHAR
STARTCHAR Iacute
ENCODING 205
SWIDTH 536 0
DWIDTH 17 0
BBX 14 22 0 0
BITMAP
7FF8
BFE4
DFCC
E01C
E03C
003C
003C
003C
001C
1FE8
3FF0
3FE0
0000
0000
0000
0000
0000
0000
0000
1FE0
3FF0
7FF8
ENDCHAR
STARTCHAR Icircumflex
ENCODING 206
SWIDTH 536 0
DWIDTH 17 0
BBX 14 22 0 0
BITMAP
7FF8
BFE4
DFCC
E01C
E03C
003C
003C
003C
001C
1FE8
3FF0
3FE0
0000
0000
0000
0000
0000
0000
0000
1FE0
3FF0
7FF8
ENDCHAR
STARTCHAR Idieresis
ENCODING 207
SWIDTH 536 0
DWIDTH 17 0
BBX 14 22 0 0
BITMAP
7FF8
BFE4
DFCC
E01C
E03C
003C
003C
003C
001C
1FE8
3FF0
3FE0
0000
0000
0000
0000
0000
0000
0000
1FE0
3FF0
7FF8
ENDCHAR
STARTCHAR Eth
ENCODING 208
SWIDTH 536 0
DWIDTH 17 0
BBX 14 22 0 0
BITMAP
7FF8
BFE4
DFCC
E01C
E03C
003C
003C
003C
001C
1FE8
3FF0
3FE0
0000
0000
0000
0000
0000
0000
0000
1FE0
3FF0
7FF8
ENDCHAR
STARTCHAR Ntilde
ENCODING 209
SWIDTH 536 0
DWIDTH 17 0
BBX 14 22 0 0
BITMAP
7FF8
BFE4
DFCC
E01C
E03C
003C
003C
003C
001C
1FE8
3FF0
3FE0
0000
0000
0000
0000
0000
0000
0000
1FE0
3FF0
7FF8
ENDCHAR
STARTCHAR Ograve
ENCODING 210
SWIDTH 536 0
DWIDTH 17 0
BBX 14 22 0 0
BITMAP
7FF8
BFE4
DFCC
E01C
E03C
003C
003C
003C
001C
1FE8
3FF0
3FE0
0000
0000
0000
0000
0000
0000
0000
1FE0
3FF0
7FF8
ENDCHAR
STARTCHAR Oacute
ENCODING 211
SWIDTH 536 0
DWIDTH 17 0
BBX 14 22 0 0
BITMAP
7FF8
BFE4
DFCC
E01C
E03C
003C
003C
003C
001C
1FE8
3FF0
3FE0
0000
0000
0000
0000
0000
0000
0000
1FE0
3FF0
7FF8
ENDCHAR
STARTCHAR Ocircumflex
ENCODING 212
SWIDTH 536 0
DWIDTH 17 0
BBX 14 22 0 0
BITMAP
7FF8
BFE4
DFCC
E01C
E03C
003C
003C
003C
001C
1FE8
3FF0
3FE0
0000
0000
0000
0000
0000
0000
0000
1FE0
3FF0
7FF8
ENDCHAR
STARTCHAR Otilde
ENCODING 213
SWIDTH 536 0
DWIDTH 17 0
BBX 14 22 0 0
BITMAP
7FF8
BFE4
DFCC
E01C
E03C
003C
003C
003C
001C
1FE8
3FF0
3FE0
0000
0000
0000
0000
0000
0000
0000
1FE0
3FF0
7FF8
ENDCHAR
STARTCHAR Odieresis
ENCODING 214
SWIDTH 536 0
DWIDTH 17 0
BBX 14 22 0 0
BITMAP
7FF8
BFE4
DFCC
E01C
E03C
003C
003C
003C
001C
1FE8
3FF0
3FE0
0000
0000
0000
0000
0000
0000
0000
1FE0
3FF0
7FF8
ENDCHAR
STARTCHAR multiply
ENCODING 215
SWIDTH 536 0
DWIDTH 17 0
BBX 14 22 0 0
BITMAP
7FF8
BFE4
DFCC
E01C
E03C
003C
003C
003C
001C
1FE8
3FF0
3FE0
0000
0000
0000
0000
0000
0000
0000
1FE0
3FF0
7FF8
ENDCHAR
STARTCHAR Oslash
ENCODING 216
SWIDTH 536 0
DWIDTH 17 0
BBX 14 22 0 0
BITMAP
7FF8
BFE4
DFCC
E01C
E03C
003C
003C
003C
001C
1FE8
3FF0
3FE0
0000
0000
0000
0000
0000
0000
0000
1FE0
3FF0
7FF8
ENDCHAR
STARTCHAR Ugrave
ENCODING 217
SWIDTH 536 0
DWIDTH 17 0
BBX 14 22 0 0
BITMAP
7FF8
BFE4
DFCC
E01C
E03C
003C
003C
003C
001C
1FE8
3FF0
3FE0
0000
0000
0000
0000
0000
0000
0000
1FE0
3FF0
7FF8
ENDCHAR
STARTCHAR Uacute
ENCODING 218
SWIDTH 536 0
DWIDTH 17 0
BBX 14 22 0 0
BITMAP
7FF8
BFE4
DFCC
E01C
E03C
003C
003C
003C
001C
1FE8
3FF0
3FE0
0000
0000
0000
0000
0000
0000
0000
1FE0
3FF0
7FF8
ENDCHAR
STARTCHAR Ucircumflex
ENCODING 219
SWIDTH 536 0
DWIDTH 17 0
BBX 14 22 0 0
BITMAP
7FF8
BFE4
DFCC
E01C
E03C
003C
003C
003C
001C
1FE8
3FF0
3FE0
0000
0000
0000
0000
0000
0000
0000
1FE0
3FF0
7FF8
ENDCHAR
STARTCHAR Udieresis
ENCODING 220
SWIDTH 536 0
DWIDTH 17 0
BBX 14 22 0 0
BITMAP
7FF8
BFE4
DFCC
E01C
E03C
003C
003C
003C
001C
1FE8
3FF0
3FE0
0000
0000
0000
0000
0000
0000
0000
1FE0
3FF0
7FF8
ENDCHAR
STARTCHAR Yacute
ENCODING 221
SWIDTH 536 0
DWIDTH 17 0
BBX 14 22 0 0
BITMAP
7FF8
BFE4
DFCC
E01C
E03C
003C
003C
003C
001C
1FE8
3FF0
3FE0
0000
0000
0000
0000
0000
0000
0000
1FE0
3FF0
7FF8
ENDCHAR
STARTCHAR Thorn
ENCODING 222
SWIDTH 536 0
DWIDTH 17 0
BBX 14 22 0 0
BITMAP
7FF8
BFE4
DFCC
E01C
E03C
003C
003C
003C
001C
1FE8
3FF0
3FE0
0000
0000
0000
0000
0000
0000
0000
1FE0
3FF0
7FF8
ENDCHAR
STARTCHAR germandbls
ENCODING 223
SWIDTH 536 0
DWIDTH 17 0
BBX 14 22 0 0
BITMAP
7FF8
BFE4
DFCC
E01C
E03C
003C
003C
003C
001C
1FE8
3FF0
3FE0
0000
0000
0000
0000
0000
0000
0000
1FE0
3FF0
7FF8
ENDCHAR
STARTCHAR agrave
ENCODING 224
SWIDTH 536 0
DWIDTH 17 0
BBX 14 22 0 0
BITMAP
7FF8
BFE4
DFCC
E01C
E03C
003C
003C
003C
001C
1FE8
3FF0
3FE0
0000
0000
0000
0000
0000
0000
0000
1FE0
3FF0
7FF8
ENDCHAR
STARTCHAR aacute
ENCODING 225
SWIDTH 536 0
DWIDTH 17 0
BBX 14 22 0 0
BITMAP
7FF8
BFE4
DFCC
E01C
E03C
003C
003C
003C
001C
1FE8
3FF0
3FE0
0000
0000
0000
0000
0000
0000
0000
1FE0
3FF0
7FF8
ENDCHAR
STARTCHAR acircumflex
ENCODING 226
SWIDTH 536 0
DWIDTH 17 0
BBX 14 22 0 0
BITMAP
7FF8
BFE4
DFCC
E01C
E03C
003C
003C
003C
001C
1FE8
3FF0
3FE0
0000
0000
0000
0000
0000
0000
0000
1FE0
3FF0
7FF8
ENDCHAR
STARTCHAR atilde
ENCODING 227
SWIDTH 536 0
DWIDTH 17 0
BBX 14 22 0 0
BITMAP
7FF8
BFE4
DFCC
E01C
E03C
003C
003C
003C
001C
1FE8
3FF0
3FE0
0000
0000
0000
0000
0000
0000
0000
1FE0
3FF0
7FF8
ENDCHAR
STARTCHAR adieresis
ENCODING 228
SWIDTH 536 0
DWIDTH 17 0
BBX 14 22 0 0
BITMAP
7FF8
BFE4
DFCC
E01C
E03C
003C
003C
003C
001C
1FE8
3FF0
3FE0
0000
0000
0000
0000
0000
0000
0000
1FE0
3FF0
7FF8
ENDCHAR
STARTCHAR aring
ENCODING 229
SWIDTH 536 0
DWIDTH 17 0
BBX 14 22 0 0
BITMAP
7FF8
BFE4
DFCC
E01C
E03C
003C
003C
003C
001C
1FE8
3FF0
3FE0
0000
0000
0000
0000
0000
0000
0000
1FE0
3FF0
7FF8
ENDCHAR
STARTCHAR ae
ENCODING 230
SWIDTH 536 0
DWIDTH 17 0
BBX 14 22 0 0
BITMAP
7FF8
BFE4
DFCC
E01C
E03C
003C
003C
003C
001C
1FE8
3FF0
3FE0
0000
0000
0000
0000
0000
0000
0000
1FE0
3FF0
7FF8
ENDCHAR
STARTCHAR ccedilla
ENCODING 231
SWIDTH 536 0
DWIDTH 17 0
BBX 14 22 0 0
BITMAP
7FF8
BFE4
DFCC
E01C
E03C
003C
003C
003C
001C
1FE8
3FF0
3FE0
0000
0000
0000
0000
0000
0000
0000
1FE0
3FF0
7FF8
ENDCHAR
STARTCHAR egrave
ENCODING 232
SWIDTH 536 0
DWIDTH 17 0
BBX 14 22 0 0
BITMAP
7FF8
BFE4
DFCC
E01C
E03C
003C
003C
003C
001C
1FE8
3FF0
3FE0
0000
0000
0000
0000
0000
0000
0000
1FE0
3FF0
7FF8
ENDCHAR
STARTCHAR eacute
ENCODING 233
SWIDTH 536 0
DWIDTH 17 0
BBX 14 22 0 0
BITMAP
7FF8
BFE4
DFCC
E01C
E03C
003C
003C
003C
001C
1FE8
3FF0
3FE0
0000
0000
0000
0000
0000
0000
0000
1FE0
3FF0
7FF8
ENDCHAR
STARTCHAR ecircumflex
ENCODING 234
SWIDTH 536 0
DWIDTH 17 0
BBX 14 22 0 0
BITMAP
7FF8
BFE4
DFCC
E01C
E03C
003C
003C
003C
001C
1FE8
3FF0
3FE0
0000
0000
0000
0000
0000
0000
0000
1FE0
3FF0
7FF8
ENDCHAR
STARTCHAR edieresis
ENCODING 235
SWIDTH 536 0
DWIDTH 17 0
BBX 14 22 0 0
BITMAP
7FF8
BFE4
DFCC
E01C
E03C
003C
003C
003C
001C
1FE8
3FF0
3FE0
0000
0000
0000
0000
0000
0000
0000
1FE0
3FF0
7FF8
ENDCHAR
STARTCHAR igrave
ENCODING 236
SWIDTH 536 0
DWIDTH 17 0
BBX 14 22 0 0
BITMAP
7FF8
BFE4
DFCC
E01C
E03C
003C
003C
003C
001C
1FE8
3FF0
3FE0
0000
0000
0000
0000
0000
0000
0000
1FE0
3FF0
7FF8
ENDCHAR
STARTCHAR iacute
ENCODING 237
SWIDTH 536 0
DWIDTH 17 0
BBX 14 22 0 0
BITMAP
7FF8
BFE4
DFCC
E01C
E03C
003C
003C
003C
001C
1FE8
3FF0
3FE0
0000
0000
0000
0000
0000
0000
0000
1FE0
3FF0
7FF8
ENDCHAR
STARTCHAR icircumflex
ENCODING 238
SWIDTH 536 0
DWIDTH 17 0
BBX 14 22 0 0
BITMAP
7FF8
BFE4
DFCC
E01C
E03C
003C
003C
003C
001C
1FE8
3FF0
3FE0
0000
0000
0000
0000
0000
0000
0000
1FE0
3FF0
7FF8
ENDCHAR
STARTCHAR idieresis
ENCODING 239
SWIDTH 536 0
DWIDTH 17 0
BBX 14 22 0 0
BITMAP
7FF8
BFE4
DFCC
E01C
E03C
003C
003C
003C
001C
1FE8
3FF0
3FE0
0000
0000
0000
0000
0000
0000
0000
1FE0
3FF0
7FF8
ENDCHAR
STARTCHAR eth
ENCODING 240
SWIDTH 536 0
DWIDTH 17 0
BBX 14 22 0 0
BITMAP
7FF8
BFE4
DFCC
E01C
E03C
003C
003C
003C
001C
1FE8
3FF0
3FE0
0000
0000
0000
0000
0000
0000
0000
1FE0
3FF0
7FF8
ENDCHAR
STARTCHAR ntilde
ENCODING 241
SWIDTH 536 0
DWIDTH 17 0
BBX 14 22 0 0
BITMAP
7FF8
BFE4
DFCC
E01C
E03C
003C
003C
003C
001C
1FE8
3FF0
3FE0
0000
0000
0000
0000
0000
0000
0000
1FE0
3FF0
7FF8
ENDCHAR
STARTCHAR ograve
ENCODING 242
SWIDTH 536 0
DWIDTH 17 0
BBX 14 22 0 0
BITMAP
7FF8
BFE4
DFCC
E01C
E03C
003C
003C
003C
001C
1FE8
3FF0
3FE0
0000
0000
0000
0000
0000
0000
0000
1FE0
3FF0
7FF8
ENDCHAR
STARTCHAR oacute
ENCODING 243
SWIDTH 536 0
DWIDTH 17 0
BBX 14 22 0 0
BITMAP
7FF8
BFE4
DFCC
E01C
E03C
003C
003C
003C
001C
1FE8
3FF0
3FE0
0000
0000
0000
0000
0000
0000
0000
1FE0
3FF0
7FF8
ENDCHAR
STARTCHAR ocircumflex
ENCODING 244
SWIDTH 536 0
DWIDTH 17 0
BBX 14 22 0 0
BITMAP
7FF8
BFE4
DFCC
E01C
E03C
003C
003C
003C
001C
1FE8
3FF0
3FE0
0000
0000
0000
0000
0000
0000
0000
1FE0
3FF0
7FF8
ENDCHAR
STARTCHAR otilde
ENCODING 245
SWIDTH 536 0
DWIDTH 17 0
BBX 14 22 0 0
BITMAP
7FF8
BFE4
DFCC
E01C
E03C
003C
003C
003C
001C
1FE8
3FF0
3FE0
0000
0000
0000
0000
0000
0000
0000
1FE0
3FF0
7FF8
ENDCHAR
STARTCHAR odieresis
ENCODING 246
SWIDTH 536 0
DWIDTH 17 0
BBX 14 22 0 0
BITMAP
7FF8
BFE4
DFCC
E01C
E03C
003C
003C
003C
001C
1FE8
3FF0
3FE0
0000
0000
0000
0000
0000
0000
0000
1FE0
3FF0
7FF8
ENDCHAR
STARTCHAR divide
ENCODING 247
SWIDTH 495 0
DWIDTH 16 0
BBX 13 15 1 4
BITMAP
0300
0780
0780
0300
0000
0000
FFF8
FFF8
0000
0000
0000
0300
0780
0780
0300
ENDCHAR
STARTCHAR oslash
ENCODING 248
SWIDTH 536 0
DWIDTH 17 0
BBX 14 22 0 0
BITMAP
7FF8
BFE4
DFCC
E01C
E03C
003C
003C
003C
001C
1FE8
3FF0
3FE0
0000
0000
0000
0000
0000
0000
0000
1FE0
3FF0
7FF8
ENDCHAR
STARTCHAR ugrave
ENCODING 249
SWIDTH 536 0
DWIDTH 17 0
BBX 14 22 0 0
BITMAP
7FF8
BFE4
DFCC
E01C
E03C
003C
003C
003C
001C
1FE8
3FF0
3FE0
0000
0000
0000
0000
0000
0000
0000
1FE0
3FF0
7FF8
ENDCHAR
STARTCHAR uacute
ENCODING 250
SWIDTH 536 0
DWIDTH 17 0
BBX 14 22 0 0
BITMAP
7FF8
BFE4
DFCC
E01C
E03C
003C
003C
003C
001C
1FE8
3FF0
3FE0
0000
0000
0000
0000
0000
0000
0000
1FE0
3FF0
7FF8
ENDCHAR
STARTCHAR ucircumflex
ENCODING 251
SWIDTH 536 0
DWIDTH 17 0
BBX 14 22 0 0
BITMAP
7FF8
BFE4
DFCC
E01C
E03C
003C
003C
003C
001C
1FE8
3FF0
3FE0
0000
0000
0000
0000
0000
0000
0000
1FE0
3FF0
7FF8
ENDCHAR
STARTCHAR udieresis
ENCODING 252
SWIDTH 536 0
DWIDTH 17 0
BBX 14 22 0 0
BITMAP
7FF8
BFE4
DFCC
E01C
E03C
003C
003C
003C
001C
1FE8
3FF0
3FE0
0000
0000
0000
0000
0000
0000
0000
1FE0
3FF0
7FF8
ENDCHAR
STARTCHAR yacute
ENCODING 253
SWIDTH 536 0
DWIDTH 17 0
BBX 14 22 0 0
BITMAP
7FF8
BFE4
DFCC
E01C
E03C
003C
003C
003C
001C
1FE8
3FF0
3FE0
0000
0000
0000
0000
0000
0000
0000
1FE0
3FF0
7FF8
ENDCHAR
STARTCHAR thorn
ENCODING 254
SWIDTH 536 0
DWIDTH 17 0
BBX 14 22 0 0
BITMAP
7FF8
BFE4
DFCC
E01C
E03C
003C
003C
003C
001C
1FE8
3FF0
3FE0
0000
0000
0000
0000
0000
0000
0000
1FE0
3FF0
7FF8
ENDCHAR
STARTCHAR ydieresis
ENCODING 255
SWIDTH 536 0
DWIDTH 17 0
BBX 14 22 0 0
BITMAP
7FF8
BFE4
DFCC
E01C
E03C
003C
003C
003C
001C
1FE8
3FF0
3FE0
0000
0000
0000
0000
0000
0000
0000
1FE0
3FF0
7FF8
ENDCHAR
STARTCHAR dotlessi
ENCODING 305
SWIDTH 250 0
DWIDTH 8 0
BBX 7 15 0 0
BITMAP
08
18
78
B8
18
18
18
18
18
18
18
18
18
3C
FE
ENDCHAR
STARTCHAR circumflex
ENCODING 710
SWIDTH 500 0
DWIDTH 16 0
BBX 10 6 3 17
BITMAP
0C00
1E00
1E00
3300
6180
C0C0
ENDCHAR
STARTCHAR caron
ENCODING 711
SWIDTH 500 0
DWIDTH 16 0
BBX 10 6 3 17
BITMAP
8040
4080
3300
3F00
1E00
0C00
ENDCHAR
STARTCHAR uni02C9
ENCODING 713
SWIDTH 536 0
DWIDTH 17 0
BBX 12 3 1 19
BITMAP
FFF0
7FC0
3F80
ENDCHAR
STARTCHAR breve
ENCODING 728
SWIDTH 500 0
DWIDTH 16 0
BBX 10 5 3 17
BITMAP
8040
4080
6180
3F00
1E00
ENDCHAR
STARTCHAR dotaccent
ENCODING 729
SWIDTH 500 0
DWIDTH 16 0
BBX 4 3 6 18
BITMAP
60
F0
60
ENDCHAR
STARTCHAR ring
ENCODING 730
SWIDTH 536 0
DWIDTH 17 0
BBX 14 13 0 10
BITMAP
7FF8
BFF4
DFEC
E01C
E03C
E03C
E03C
E03C
E01C
C01C
7FE8
3FF0
1FE0
ENDCHAR
STARTCHAR ogonek
ENCODING 731
SWIDTH 536 0
DWIDTH 17 0
BBX 13 11 0 0
BITMAP
4000
C000
E000
E000
E000
E000
E000
E000
DFE0
BFF0
7FF8
ENDCHAR
STARTCHAR tilde
ENCODING 732
SWIDTH 536 0
DWIDTH 17 0
BBX 12 3 1 19
BITMAP
FFF0
7FC0
3F80
ENDCHAR
STARTCHAR hungarumlaut
ENCODING 733
SWIDTH 341 0
DWIDTH 11 0
BBX 9 9 0 12
BITMAP
8600
C700
E780
E780
E780
E780
E780
E700
C200
ENDCHAR
STARTCHAR semicolon.dup4
ENCODING 894
SWIDTH 202 0
DWIDTH 6 0
BBX 3 16 0 2
BITMAP
E0
E0
E0
00
00
00
00
00
00
E0
E0
E0
E0
E0
E0
E0
ENDCHAR
STARTCHAR endash
ENCODING 8211
SWIDTH 536 0
DWIDTH 17 0
BBX 10 3 2 10
BITMAP
FF80
FFC0
7F80
ENDCHAR
STARTCHAR emdash
ENCODING 8212
SWIDTH 1000 0
DWIDTH 32 0
BBX 32 2 0 7
BITMAP
FFFFFFFF
FFFFFFFF
ENDCHAR
STARTCHAR quoteleft
ENCODING 8216
SWIDTH 196 0
DWIDTH 6 0
BBX 3 9 0 12
BITMAP
80
C0
E0
E0
E0
E0
E0
E0
C0
ENDCHAR
STARTCHAR quoteright
ENCODING 8217
SWIDTH 196 0
DWIDTH 6 0
BBX 3 9 0 12
BITMAP
80
C0
E0
E0
E0
E0
E0
E0
C0
ENDCHAR
STARTCHAR quotesinglbase
ENCODING 8218
SWIDTH 173 0
DWIDTH 6 0
BBX 3 10 0 1
BITMAP
40
C0
E0
E0
E0
E0
E0
E0
C0
80
ENDCHAR
STARTCHAR quotedblleft
ENCODING 8220
SWIDTH 341 0
DWIDTH 11 0
BBX 9 9 0 12
BITMAP
8600
C700
E780
E780
E780
E780
E780
E700
C200
ENDCHAR
STARTCHAR quotedblright
ENCODING 8221
SWIDTH 341 0
DWIDTH 11 0
BBX 9 9 0 12
BITMAP
8600
C700
E780
E780
E780
E780
E780
E700
C200
ENDCHAR
STARTCHAR quotedblbase
ENCODING 8222
SWIDTH 444 0
DWIDTH 14 0
BBX 9 9 2 -4
BITMAP
6100
E380
F780
7180
3180
2180
2180
4100
4200
ENDCHAR
STARTCHAR bullet
ENCODING 8226
SWIDTH 500 0
DWIDTH 16 0
BBX 10 9 3 7
BITMAP
1E00
3F00
7F80
FFC0
FFC0
FFC0
7F80
3F00
1E00
ENDCHAR
STARTCHAR ellipsis
ENCODING 8230
SWIDTH 1000 0
DWIDTH 32 0
BBX 25 4 2 0
BITMAP
60080100
F01E0780
F01C0380
60080100
ENDCHAR
STARTCHAR guilsinglleft
ENCODING 8249
SWIDTH 308 0
DWIDTH 10 0
BBX 5 9 3 3
BITMAP
08
10
30
60
C0
60
30
10
08
ENDCHAR
STARTCHAR guilsinglright
ENCODING 8250
SWIDTH 308 0
DWIDTH 10 0
BBX 5 9 2 3
BITMAP
80
C0
60
30
18
30
60
C0
80
ENDCHAR
STARTCHAR franc
ENCODING 8355
SWIDTH 495 0
DWIDTH 16 0
BBX 16 23 1 0
BITMAP
FFFC
3C06
1C02
1801
1800
1800
1800
1800
1800
1808
1FF8
1FF8
1808
1808
1800
1800
FF00
1800
1800
1800
1C00
3C00
FF80
ENDCHAR
STARTCHAR lira
ENCODING 8356
SWIDTH 495 0
DWIDTH 16 0
BBX 14 23 1 0
BITMAP
07F0
0C18
1808
3800
3000
7000
7000
7000
3000
3000
FFC0
3800
FFE0
1C00
0C00
0C00
0C00
1C00
1800
3804
3008
7FF8
7FF0
ENDCHAR
STARTCHAR peseta
ENCODING 8359
SWIDTH 990 0
DWIDTH 32 0
BBX 30 23 1 0
BITMAP
FFE00000
38380000
180C1000
180C1000
180E1000
18063000
18063000
18067000
1807FFF8
18067218
18067608
180E7600
1C0C7700
1A187380
19F073E0
180070F8
18007038
1800701C
1800700C
1800780C
1C007408
3C003E18
FF801FE0
ENDCHAR
STARTCHAR Euro
ENCODING 8364
SWIDTH 495 0
DWIDTH 16 0
BBX 18 23 -1 0
BITMAP
007D00
018700
060100
040080
0C0000
180000
180000
300000
300000
300000
7FFE00
300000
FFFE00
300000
300000
380000
180000
180000
0C0040
060040
0700C0
018180
007E00
ENDCHAR
STARTCHAR uni2116
ENCODING 8470
SWIDTH 536 0
DWIDTH 17 0
BBX 14 22 0 0
BITMAP
7FF8
BFF4
DFCC
E01C
E03C
003C
003C
003C
001C
1FE8
3FF0
3FE0
0000
0000
0000
0000
0000
0000
0000
1FE0
3FF0
7FF8
ENDCHAR
STARTCHAR trademark
ENCODING 8482
SWIDTH 536 0
DWIDTH 17 0
BBX 14 22 0 0
BITMAP
7FF8
BFF4
DFCC
E01C
E03C
003C
003C
003C
001C
1FE8
3FF0
3FE0
0000
0000
0000
0000
0000
0000
0000
1FE0
3FF0
7FF8
ENDCHAR
STARTCHAR partialdiff
ENCODING 8706
SWIDTH 495 0
DWIDTH 16 0
BBX 14 23 1 -1
BITMAP
3800
0600
0180
00C0
0040
0060
0030
07B0
18F8
3078
6038
6038
6018
E01C
E01C
E01C
E01C
E018
7018
7018
3830
1C60
0780
ENDCHAR
STARTCHAR Delta
ENCODING 8710
SWIDTH 527 0
DWIDTH 17 0
BBX 17 22 0 0
BITMAP
008000
008000
01C000
01C000
01C000
026000
026000
022000
043000
043000
081800
081800
081800
100C00
100C00
200400
200600
200600
400200
400300
7FFF00
FFFF80
ENDCHAR
STARTCHAR product
ENCODING 8719
SWIDTH 739 0
DWIDTH 24 0
BBX 22 29 1 -7
BITMAP
FFFFFC
3C00E0
1C00E0
1800E0
1800E0
1800E0
1800E0
1800E0
1800E0
1800E0
1800E0
1800E0
1800E0
1800E0
1800E0
1800E0
1800E0
1800E0
1800E0
1800E0
1800E0
1800E0
1800E0
1800E0
1800E0
1800E0
1C00E0
3C00E0
FF87FC
ENDCHAR
STARTCHAR summation
ENCODING 8721
SWIDTH 588 0
DWIDTH 19 0
BBX 16 29 2 -7
BITMAP
FFFC
7802
3C02
1E01
0E00
0F00
0780
03C0
01C0
01E0
00F0
0078
0038
001E
001C
0008
0010
0020
0060
00C0
0180
0300
0200
0400
0800
1001
3002
6002
FFFC
ENDCHAR
STARTCHAR minus
ENCODING 8722
SWIDTH 536 0
DWIDTH 17 0
BBX 10 3 2 10
BITMAP
7F80
FFC0
7F80
ENDCHAR
STARTCHAR periodcentered.dup5
ENCODING 8729
SWIDTH 536 0
DWIDTH 17 0
BBX 14 22 0 0
BITMAP
7FF8
BFE4
DFCC
E01C
E03C
003C
003C
003C
001C
1FE8
3FF0
3FE0
0000
0000
0000
0000
0000
0000
0000
1FE0
3FF0
7FF8
ENDCHAR
STARTCHAR radical
ENCODING 8730
SWIDTH 495 0
DWIDTH 16 0
BBX 16 26 0 0
BITMAP
0003
0006
0006
000C
000C
0018
0018
0030
0030
0060
0060
00C0
00C0
0180
0180
0300
0300
0600
0600
0C00
CC00
5800
7800
3000
3000
2000
ENDCHAR
STARTCHAR infinity
ENCODING 8734
SWIDTH 495 0
DWIDTH 16 0
BBX 14 11 1 6
BITMAP
30F0
79F8
C708
8204
8204
8404
8404
8604
7918
31F8
00F0
ENDCHAR
STARTCHAR integral
ENCODING 8747
SWIDTH 324 0
DWIDTH 10 0
BBX 12 31 -1 -4
BITMAP
0030
0070
0090
0180
0100
0100
0300
0300
0300
0300
0300
0700
0600
0600
0600
0600
0600
0600
0600
0600
0600
0E00
0C00
0C00
0C00
0C00
0800
0800
9000
E000
C000
ENDCHAR
STARTCHAR approxequal
ENCODING 8776
SWIDTH 495 0
DWIDTH 16 0
BBX 13 11 1 6
BITMAP
0008
3E08
7FF8
C1F0
8000
0008
3C08
7F18
E3F8
80F0
8000
ENDCHAR
STARTCHAR lessequal
ENCODING 8804
SWIDTH 495 0
DWIDTH 16 0
BBX 13 19 1 0
BITMAP
0008
0038
00F8
01E0
07C0
1F00
3C00
F000
F800
3E00
0F00
03C0
01F0
0078
0018
0008
0000
FFF8
FFF8
ENDCHAR
STARTCHAR greaterequal
ENCODING 8805
SWIDTH 495 0
DWIDTH 16 0
BBX 13 19 1 0
BITMAP
C000
F000
7800
1E00
0F80
03E0
00F0
0078
0078
01F0
07C0
0F00
3E00
F800
E000
8000
0000
FFF8
FFF8
ENDCHAR
STARTCHAR uniF001
ENCODING 61441
SWIDTH 536 0
DWIDTH 17 0
BBX 14 22 0 0
BITMAP
7FF8
BFE4
DFCC
E01C
E03C
003C
003C
003C
001C
1FE8
3FF0
3FE0
0000
0000
0000
0000
0000
0000
0000
1FE0
3FF0
7FF8
ENDCHAR
STARTCHAR uniF002
ENCODING 61442
SWIDTH 536 0
DWIDTH 17 0
BBX 14 22 0 0
BITMAP
7FF8
BFE4
DFCC
E01C
E03C
003C
003C
003C
001C
1FE8
3FF0
3FE0
0000
0000
0000
0000
0000
0000
0000
1FE0
3FF0
7FF8
ENDCHAR
STARTCHAR uniF001.dup6
ENCODING 64257
SWIDTH 536 0
DWIDTH 17 0
BBX 14 22 0 0
BITMAP
7FF8
BFE4
DFCC
E01C
E03C
003C
003C
003C
001C
1FE8
3FF0
3FE0
0000
0000
0000
0000
0000
0000
0000
1FE0
3FF0
7FF8
ENDCHAR
STARTCHAR uniF002.dup7
ENCODING 64258
SWIDTH 536 0
DWIDTH 17 0
BBX 14 22 0 0
BITMAP
7FF8
BFE4
DFCC
E01C
E03C
003C
003C
003C
001C
1FE8
3FF0
3FE0
0000
0000
0000
0000
0000
0000
0000
1FE0
3FF0
7FF8
ENDCHAR
STARTCHAR .notdef
ENCODING -1
SWIDTH 500 0
DWIDTH 16 0
BBX 12 23 2 0
BITMAP
FFF0
8010
8010
8010
8F10
9390
8190
8190
8110
8310
8210
8410
8410
8810
8810
8410
8010
8C10
8E10
8410
8010
8010
FFF0
ENDCHAR
STARTCHAR nonmarkingreturn
ENCODING -1
SWIDTH 248 0
DWIDTH 8 0
BBX 1 1 0 0
BITMAP
00
ENDCHAR
ENDFONT
